<?xml version="1.0" encoding="utf-8"?>
<!-- Generator: Adobe Illustrator 21.0.0, SVG Export Plug-In . SVG Version: 6.00 Build 0)  -->
<svg version="1.1" id="Transparent_Logo" xmlns="http://www.w3.org/2000/svg" xmlns:xlink="http://www.w3.org/1999/xlink" x="0px"
	 y="0px" viewBox="0 0 1024 1024" style="enable-background:new 0 0 1024 1024;" xml:space="preserve">
<style type="text/css">
	.st0{fill:#282828;}
</style>
<g id="Light_copy">
</g>
<path class="st0" d="M506.5,886.8c8.5,4.1,18.5,4.1,27,0H506.5z"/>
<polygon class="st0" points="473.5,867.9 488.1,876.3 551.9,876.3 566.4,867.9 "/>
<polygon class="st0" points="437.2,846.9 455.4,857.4 584.6,857.4 602.8,846.9 "/>
<polygon class="st0" points="400.8,825.9 419,836.4 621,836.4 639.2,825.9 "/>
<polygon class="st0" points="364.4,804.9 382.6,815.4 657.3,815.4 675.5,804.9 "/>
<polygon class="st0" points="328.1,783.9 346.3,794.4 693.7,794.4 711.9,783.9 "/>
<polygon class="st0" points="291.7,762.9 309.9,773.5 730,773.5 748.2,762.9 "/>
<polygon class="st0" points="255.4,742 273.6,752.5 766.4,752.5 784.6,742 "/>
<polygon class="st0" points="219,721 237.2,731.5 802.8,731.5 821,721 "/>
<path class="st0" d="M186.6,702.1c0.8,0.6,1.7,1.1,2.5,1.6l11.7,6.8h638.3l11.7-6.8c0.9-0.5,1.7-1.1,2.5-1.6H186.6z"/>
<path class="st0" d="M665.6,483.5l-293.7,61.1V374.2c0-7,3.5-13.5,9.3-17.4l125.9-77c7.1-4.7,16.3-4.7,23.3,0l125.9,77
	c5.8,3.9,9.3,10.4,9.3,17.4v2.2l172.9-98.1L535.7,103.4c-9.7-5.6-21.7-5.6-31.5,0L189.1,285.3c-9.7,5.6-15.7,16-15.7,27.2v363.9
	c0,5.4,1.4,10.6,3.9,15.1h194.6v-18.9l293.7-61.1v31.5l-233.2,48.5h100.9l132.4-27.5v27.5h197.1c2.5-4.6,3.9-9.7,3.9-15.1V559.6
	L665.6,483.5z M665.6,590.6l-293.7,61.1v-29.4l293.7-61.1V590.6z M665.6,540.2l-293.7,61.1v-35.7l293.7-61.1V540.2z"/>
<path class="st0" d="M520.5,354.7c-24.2,0-44,19.8-44,44v95.8h88.1v-95.8C564.5,374.5,544.7,354.7,520.5,354.7L520.5,354.7z"/>
</svg>
